<svg width="48" height="48" viewBox="0 0 48 48" fill="none" xmlns="http://www.w3.org/2000/svg">
<rect x="0.435547" width="47.5248" height="48" rx="8" fill="white"/>
<path d="M43.6143 20.083H42.0193V20H24.1975V28H35.3886C33.7559 32.657 29.3688 36 24.1975 36C17.6361 36 12.3163 30.627 12.3163 24C12.3163 17.373 17.6361 12 24.1975 12C27.2262 12 29.9816 13.154 32.0797 15.039L37.6807 9.382C34.144 6.053 29.4133 4 24.1975 4C13.2618 4 4.39551 12.955 4.39551 24C4.39551 35.045 13.2618 44 24.1975 44C35.1331 44 43.9995 35.045 43.9995 24C43.9995 22.659 43.8628 21.35 43.6143 20.083Z" fill="#FFC107"/>
<path d="M6.67871 14.691L13.1847 19.51C14.945 15.108 19.2084 12 24.1975 12C27.2262 12 29.9817 13.154 32.0797 15.039L37.6807 9.382C34.1441 6.053 29.4134 4 24.1975 4C16.5916 4 9.99554 8.337 6.67871 14.691Z" fill="#FF3D00"/>
<path d="M24.198 44C29.3129 44 33.9604 42.023 37.4743 38.808L31.3456 33.57C29.2907 35.1484 26.7797 36.0021 24.198 36C19.0476 36 14.6743 32.683 13.0268 28.054L6.56934 33.079C9.84656 39.556 16.502 44 24.198 44Z" fill="#4CAF50"/>
<path d="M43.6151 20.083H42.02V20H24.1982V28H35.3893C34.6083 30.2164 33.2016 32.1532 31.3428 33.571L31.3458 33.569L37.4745 38.807C37.0408 39.205 44.0002 34 44.0002 24C44.0002 22.659 43.8636 21.35 43.6151 20.083Z" fill="#1976D2"/>
</svg>
